# xmcd
#
# Track frame offsets:
#	150
#	12676
#	25159
#	37117
#	48113
#	58535
#	69546
#	80124
#	90093
#	99939
#	110694
#	120014
#
# Disc length: 1746 seconds
#
# Revision: 1
# Processed by: cddbd v1.5.2PL0 Copyright (c) Steve Scherf et al.
# Submitted via: audiograbber 1.83.01
#
DISCID=8e06d00c
DTITLE=George Hamilton IV - Steel Rail Blues
DYEAR=1966
DGENRE=Country
TTITLE0=Early Morning Rain
TTITLE1=Changes
TTITLE2=Steel Rail Blues
TTITLE3=My Face
TTITLE4=Tobacco
TTITLE5=I Ain't Mad (I Just Leavin')
TTITLE6=A Nice Place To Visit
TTITLE7=Remember M, Remember E, Remember Me
TTITLE8=Write Me A Picture
TTITLE9=I've Got A Secret
TTITLE10=The Late Mister Jones
TTITLE11=Mine
EXTD=
EXTT0=
EXTT1=
EXTT2=
EXTT3=
EXTT4=
EXTT5=
EXTT6=
EXTT7=
EXTT8=
EXTT9=
EXTT10=
EXTT11=
PLAYORDER=
